# xmcd CD database file
#
# Track frame offsets:
#	187
#	27480
#	46070
#	66685
#	77707
#	99162
#	109747
#	125640
#	145297
#	158002
#	175330
#	199125
#	215737
#	231222
#	232737
#	250707
#	275332
#	295712
#
# Disc length: 4340 seconds
#
# Revision: 1
# Processed by: cddbd v1.5.2PL0 Copyright (c) Steve Scherf et al.
# Submitted via: CDex 1.51
#
DISCID=0110f212
DTITLE=John Mayall - Drivin' On - The ABC Years 1975 To 1982 (Disc-1)
DYEAR=1900
DGENRE=Blues
TTITLE0=Sitting On The Outside
TTITLE1=Can't Get Home
TTITLE2=Match The Wind
TTITLE3=Drivin' On
TTITLE4=My Train Time
TTITLE5=Step In The Sun (Single Edit)
TTITLE6=It Ain't Easy
TTITLE7=Hail To The Man Who Lives Alone
TTITLE8=Lil' Boogie In The Afternoon
TTITLE9=Old Time Blues
TTITLE10=Seven Days Too Long
TTITLE11=Lady
TTITLE12=You Can't Put Me Down
TTITLE13=Intro (Live)
TTITLE14=Changes In The Wind (Live)
TTITLE15=Play The Harp (Live)
TTITLE16=He's A Traveling Man (Live)
TTITLE17=Room To Move (Live)
EXTD=
EXTT0=
EXTT1=
EXTT2=
EXTT3=
EXTT4=
EXTT5=
EXTT6=
EXTT7=
EXTT8=
EXTT9=
EXTT10=
EXTT11=
EXTT12=
EXTT13=
EXTT14=
EXTT15=
EXTT16=
EXTT17=
PLAYORDER=
